<?xml version="1.0" encoding="UTF-8" standalone="no"?>
<!-- Created with Inkscape (http://www.inkscape.org/) -->

<svg
   width="200"
   height="100.00001"
   viewBox="0 0 52.916667 26.458335"
   version="1.1"
   id="svg1"
   inkscape:version="1.3 (0e150ed6c4, 2023-07-21)"
   sodipodi:docname="Button Colors.svg"
   inkscape:export-filename="Arrow2.png"
   inkscape:export-xdpi="96"
   inkscape:export-ydpi="96"
   xml:space="preserve"
   xmlns:inkscape="http://www.inkscape.org/namespaces/inkscape"
   xmlns:sodipodi="http://sodipodi.sourceforge.net/DTD/sodipodi-0.dtd"
   xmlns="http://www.w3.org/2000/svg"
   xmlns:svg="http://www.w3.org/2000/svg"><sodipodi:namedview
     id="namedview1"
     pagecolor="#595959"
     bordercolor="#000000"
     borderopacity="0.25"
     inkscape:showpageshadow="2"
     inkscape:pageopacity="0.0"
     inkscape:pagecheckerboard="0"
     inkscape:deskcolor="#595959"
     inkscape:document-units="mm"
     inkscape:zoom="2.043487"
     inkscape:cx="63.861429"
     inkscape:cy="66.308227"
     inkscape:window-width="1920"
     inkscape:window-height="1046"
     inkscape:window-x="-11"
     inkscape:window-y="-11"
     inkscape:window-maximized="1"
     inkscape:current-layer="layer1" /><defs
     id="defs1"><inkscape:path-effect
       effect="fillet_chamfer"
       id="path-effect4"
       is_visible="true"
       lpeversion="1"
       nodesatellites_param="F,0,0,1,0,19.84375,0,1 @ F,0,0,1,0,19.84375,0,1 @ F,0,0,1,0,19.84375,0,1 @ F,0,0,1,0,19.84375,0,1 @ F,0,0,1,0,19.84375,0,1 @ F,0,0,1,0,19.84375,0,1"
       radius="75"
       unit="px"
       method="auto"
       mode="F"
       chamfer_steps="1"
       flexible="false"
       use_knot_distance="true"
       apply_no_radius="true"
       apply_with_radius="true"
       only_selected="false"
       hide_knots="false" /><inkscape:path-effect
       effect="fillet_chamfer"
       id="path-effect1"
       is_visible="true"
       lpeversion="1"
       nodesatellites_param="F,0,0,1,0,19.84375,0,1 @ F,0,0,1,0,19.84375,0,1 @ F,0,0,1,0,19.84375,0,1 @ F,0,0,1,0,19.84375,0,1 @ F,0,0,1,0,19.84375,0,1 @ F,0,0,1,0,19.84375,0,1"
       radius="75"
       unit="px"
       method="auto"
       mode="F"
       chamfer_steps="1"
       flexible="false"
       use_knot_distance="true"
       apply_no_radius="true"
       apply_with_radius="true"
       only_selected="false"
       hide_knots="false" /><inkscape:path-effect
       effect="fillet_chamfer"
       id="path-effect3"
       is_visible="true"
       lpeversion="1"
       nodesatellites_param="F,0,0,1,0,1.3229167,0,1 @ F,0,0,1,0,1.3229167,0,1 @ F,0,0,1,0,1.3229167,0,1 @ F,0,0,1,0,1.3229167,0,1 @ F,0,0,1,0,1.3229167,0,1 @ F,0,0,1,0,1.3229167,0,1 @ F,0,0,1,0,1.3229167,0,1 @ F,0,0,1,0,1.3229167,0,1 @ F,0,0,1,0,1.3229167,0,1 @ F,0,0,1,0,1.3229167,0,1"
       radius="5"
       unit="px"
       method="auto"
       mode="F"
       chamfer_steps="1"
       flexible="false"
       use_knot_distance="true"
       apply_no_radius="true"
       apply_with_radius="true"
       only_selected="false"
       hide_knots="false" /><inkscape:path-effect
       effect="fillet_chamfer"
       id="path-effect2"
       is_visible="true"
       lpeversion="1"
       nodesatellites_param="F,0,0,1,0,0,0,1 @ F,0,0,1,0,0,0,1 @ F,0,0,1,0,0,0,1 @ F,0,0,1,0,0,0,1"
       radius="0"
       unit="px"
       method="auto"
       mode="F"
       chamfer_steps="1"
       flexible="false"
       use_knot_distance="true"
       apply_no_radius="true"
       apply_with_radius="true"
       only_selected="false"
       hide_knots="false" /><inkscape:path-effect
       effect="fillet_chamfer"
       id="path-effect2-2"
       is_visible="true"
       lpeversion="1"
       nodesatellites_param="F,0,0,1,0,0,0,1 @ F,0,0,1,0,0,0,1 @ F,0,0,1,0,0,0,1 @ F,0,0,1,0,0,0,1"
       radius="0"
       unit="px"
       method="auto"
       mode="F"
       chamfer_steps="1"
       flexible="false"
       use_knot_distance="true"
       apply_no_radius="true"
       apply_with_radius="true"
       only_selected="false"
       hide_knots="false" /><inkscape:path-effect
       effect="fillet_chamfer"
       id="path-effect2-2-5"
       is_visible="true"
       lpeversion="1"
       nodesatellites_param="F,0,0,1,0,0,0,1 @ F,0,0,1,0,0,0,1 @ F,0,0,1,0,0,0,1 @ F,0,0,1,0,0,0,1"
       radius="0"
       unit="px"
       method="auto"
       mode="F"
       chamfer_steps="1"
       flexible="false"
       use_knot_distance="true"
       apply_no_radius="true"
       apply_with_radius="true"
       only_selected="false"
       hide_knots="false" /><inkscape:path-effect
       effect="fillet_chamfer"
       id="path-effect2-2-5-5"
       is_visible="true"
       lpeversion="1"
       nodesatellites_param="F,0,0,1,0,0,0,1 @ F,0,0,1,0,0,0,1 @ F,0,0,1,0,0,0,1 @ F,0,0,1,0,0,0,1"
       radius="0"
       unit="px"
       method="auto"
       mode="F"
       chamfer_steps="1"
       flexible="false"
       use_knot_distance="true"
       apply_no_radius="true"
       apply_with_radius="true"
       only_selected="false"
       hide_knots="false" /><inkscape:path-effect
       effect="fillet_chamfer"
       id="path-effect2-2-5-5-4"
       is_visible="true"
       lpeversion="1"
       nodesatellites_param="F,0,0,1,0,0,0,1 @ F,0,0,1,0,0,0,1 @ F,0,0,1,0,0,0,1 @ F,0,0,1,0,0,0,1"
       radius="0"
       unit="px"
       method="auto"
       mode="F"
       chamfer_steps="1"
       flexible="false"
       use_knot_distance="true"
       apply_no_radius="true"
       apply_with_radius="true"
       only_selected="false"
       hide_knots="false" /><inkscape:path-effect
       effect="fillet_chamfer"
       id="path-effect3-0"
       is_visible="true"
       lpeversion="1"
       nodesatellites_param="F,0,0,1,0,1.3229167,0,1 @ F,0,0,1,0,1.3229167,0,1 @ F,0,0,1,0,1.3229167,0,1 @ F,0,0,1,0,1.3229167,0,1 @ F,0,0,1,0,1.3229167,0,1 @ F,0,0,1,0,1.3229167,0,1 @ F,0,0,1,0,1.3229167,0,1 @ F,0,0,1,0,1.3229167,0,1 @ F,0,0,1,0,1.3229167,0,1 @ F,0,0,1,0,1.3229167,0,1"
       radius="5"
       unit="px"
       method="auto"
       mode="F"
       chamfer_steps="1"
       flexible="false"
       use_knot_distance="true"
       apply_no_radius="true"
       apply_with_radius="true"
       only_selected="false"
       hide_knots="false" /><filter
       style="color-interpolation-filters:sRGB;"
       inkscape:label="Greyscale"
       id="filter13"
       x="0"
       y="0"
       width="1"
       height="1"><feColorMatrix
         values="0.21 0.72 0.072 0 0 0.21 0.72 0.072 0 0 0.21 0.72 0.072 0 0 0 0 0 1 0 "
         id="feColorMatrix13" /></filter></defs><g
     inkscape:label="Layer 1"
     inkscape:groupmode="layer"
     id="layer1"
     transform="translate(-19.775537,-74.707585)"><path
       id="rect1"
       style="fill:#808080;stroke-width:18.2454;paint-order:markers fill stroke"
       d="M 19.775537,74.707585 V 101.16592 H 46.23387 V 74.707585 Z m 0.661458,0.661458 H 45.572412 V 100.50446 H 20.436995 Z" /><path
       id="rect1-5"
       style="fill:#808080;stroke-width:18.2454;paint-order:markers fill stroke"
       d="M 46.23387,74.707585 V 101.16592 H 72.692203 V 74.707585 Z m 0.661458,0.661458 H 72.030745 V 100.50446 H 46.895328 Z" /><g
       id="g13"><g
         id="g1"
         transform="matrix(0.18024994,0,0,0.18031179,26.933245,72.385729)"><path
           style="fill:#fcfc31"
           d="m 79.168267,98.479993 -10.452988,-2.823931 0.495819,-2.116667 c 0.711947,-3.039324 0.71201,-11.512289 1.09e-4,-14.552083 l -0.495711,-2.116667 10.585171,-2.841477 c 5.821845,-1.562813 10.71848,-2.842735 10.881412,-2.844271 0.351398,-0.0033 1.280678,4.247086 1.821562,8.331581 0.758413,5.727161 0.415193,12.594737 -0.955365,19.116146 -0.443879,2.112076 -0.664752,2.707476 -0.998489,2.691636 -0.235692,-0.0112 -5.132376,-1.2911 -10.88152,-2.844267 z"
           id="path13" /><path
           style="fill:#cfe92a"
           d="m 67.155523,119.90258 -7.913649,-7.93023 1.521107,-1.67585 c 2.922782,-3.22012 6.013815,-8.56462 7.3464,-12.702161 0.319912,-0.993292 0.696118,-1.805986 0.836014,-1.805986 0.342115,0 21.17626,5.584247 21.311224,5.712127 0.210893,0.19981 -1.910261,6.38911 -3.120244,9.10454 -2.383124,5.34817 -6.167021,11.02771 -10.101653,15.16233 l -1.96555,2.06546 z"
           id="path12" /><path
           style="fill:#f9ba01"
           d="M 68.094493,74.952416 C 66.886391,70.985734 63.71508,65.482629 60.762981,62.23021 l -1.521107,-1.675853 7.907302,-7.910598 7.907302,-7.910598 1.031218,0.987492 c 3.461937,3.315143 7.792455,9.439669 10.239368,14.481242 1.369894,2.822505 3.95565,9.731633 3.95565,10.569481 0,0.194767 -4.082142,1.411246 -10.54491,3.142384 -5.799701,1.553526 -10.669666,2.824593 -10.822146,2.824593 -0.15248,0 -0.522004,-0.803672 -0.821165,-1.785937 z"
           id="path11" /><path
           style="fill:#fa9701"
           d="M 57.758715,59.234973 C 54.576604,56.279063 48.589042,52.835554 44.68964,51.718815 l -1.651832,-0.473064 2.880235,-10.73547 c 1.58413,-5.904508 2.929386,-10.787106 2.989458,-10.850217 0.260242,-0.273408 7.917484,2.514322 10.815838,3.937663 5.124799,2.516716 11.235213,6.829927 14.412289,10.173327 l 0.91854,0.966627 -7.929998,7.915355 -7.929998,7.915355 z"
           id="path10" /><path
           style="fill:#0390cd"
           d="m 27.973339,144.83982 c -4.833842,-0.68371 -9.392709,-1.67186 -9.392709,-2.03591 0,-0.19065 5.564561,-21.30039 5.671881,-21.51687 0.0092,-0.0185 1.088224,0.20422 2.397911,0.4949 3.350881,0.74373 10.625884,0.75203 13.97112,0.0159 1.281199,-0.28191 2.369801,-0.44509 2.419116,-0.36262 0.139948,0.23406 5.702472,21.06856 5.702472,21.35869 0,0.27088 -2.302186,0.86806 -6.085416,1.57854 -2.159771,0.4056 -12.740146,0.74231 -14.684375,0.46732 z"
           id="path9" /><path
           style="fill:#fb5207"
           d="M 21.379366,40.422739 C 19.795981,34.489191 18.548284,29.58865 18.606704,29.532647 c 0.224151,-0.214877 5.524458,-1.267265 8.17601,-1.623364 3.566568,-0.478986 10.201275,-0.478178 13.758333,0.0017 3.812931,0.51437 8.202083,1.482833 8.202083,1.809782 0,0.335019 -5.576984,21.184092 -5.702138,21.316951 -0.04985,0.05292 -1.198275,-0.121966 -2.55206,-0.388628 -3.414376,-0.672548 -10.769086,-0.637338 -13.976265,0.06691 l -2.254421,0.495036 z"
           id="path8" /><path
           style="fill:#64ae31"
           d="m 45.934583,132.07051 -2.90149,-10.81368 1.862831,-0.59128 c 4.220261,-1.33954 8.877562,-3.98308 12.480705,-7.08421 l 1.867161,-1.60702 7.971843,7.98045 7.971843,7.98046 -2.440402,2.17073 c -4.663074,4.14779 -8.473236,6.69648 -13.756261,9.20185 -2.845563,1.34944 -8.920379,3.57638 -9.755957,3.57638 -0.301489,0 -1.10668,-2.63829 -3.300273,-10.81368 z"
           id="path7" /><path
           style="fill:#0146fc"
           d="m 14.744172,141.84883 c -3.974376,-1.37302 -5.4021645,-1.96886 -8.3331419,-3.47754 -4.4430192,-2.28699 -9.7149701,-6.07393 -12.7643847,-9.1689 l -1.5183601,-1.54104 7.91847829,-7.91518 7.91847831,-7.91518 1.1405068,1.04546 c 3.6717923,3.36579 7.8820043,5.88178 12.5984803,7.52876 1.337958,0.46721 2.432651,0.97375 2.432651,1.12564 0,0.15188 -1.270349,5.01852 -2.822998,10.81474 -2.223362,8.30009 -2.911817,10.53542 -3.241145,10.52365 -0.229982,-0.008 -1.727836,-0.46741 -3.328565,-1.02041 z"
           id="path6" /><path
           style="fill:#fc2611"
           d="M -0.02470738,52.709077 -7.9111127,44.819384 -6.0876331,43.099206 C -0.12583571,37.475148 6.7572084,33.36869 14.54123,30.791923 c 2.071194,-0.685634 3.816459,-1.19497 3.878365,-1.131859 0.136244,0.138895 5.717285,20.945237 5.717285,21.314264 0,0.142927 -0.822886,0.524896 -1.828636,0.848819 -4.191479,1.349957 -9.507364,4.438517 -12.7671818,7.417807 -0.8171171,0.746799 -1.5292492,1.357816 -1.5825158,1.357816 -0.053267,0 -3.6457308,-3.550362 -7.98325378,-7.889693 z"
           id="path5" /><path
           style="fill:#8500ad"
           d="m -23.725054,98.632624 c -0.982185,-4.669026 -1.082238,-5.498583 -1.252532,-10.384896 -0.187249,-5.372839 0.09849,-8.844628 1.132358,-13.758333 0.367419,-1.74625 0.716543,-3.224013 0.775829,-3.283917 0.05929,-0.05991 4.961285,1.187871 10.893329,2.772836 l 10.7855335,2.881754 -0.4750427,2.254247 c -0.9597182,4.554205 -0.8945237,9.140687 0.2219691,15.615705 l 0.1596782,0.926042 -10.6714751,2.844271 c -5.869312,1.564347 -10.745202,2.844267 -10.835313,2.844267 -0.09011,0 -0.420561,-1.22039 -0.734334,-2.711976 z"
           id="path4" /><path
           style="fill:#a5184a"
           d="m -12.507911,73.914158 c -5.675313,-1.531695 -10.365116,-2.829297 -10.421784,-2.88356 -0.186214,-0.178309 0.794316,-3.366696 1.951127,-6.344476 2.684863,-6.911178 6.23909,-12.613161 11.1063866,-17.817772 l 1.9378467,-2.072144 7.97816937,7.981387 7.97816933,7.981387 -0.5748124,0.515207 c -0.7649973,0.685672 -3.6349792,4.413135 -4.6793363,6.077409 -1.0939383,1.743287 -2.76481131,5.362828 -3.5087325,7.60082 -0.4148525,1.24803 -0.7223587,1.78002 -1.0209699,1.76629 -0.2350228,-0.01081 -5.0707516,-1.272853 -10.7460639,-2.804548 z"
           id="path3" /><path
           style="fill:#3c00a3"
           d="m -10.042559,125.4053 c -5.529238,-6.09143 -9.732992,-13.41716 -12.134004,-21.1455 -0.459055,-1.4776 -0.793123,-2.7162 -0.742372,-2.75243 0.210867,-0.15054 21.4478264,-5.749449 21.5128467,-5.67164 0.039028,0.0467 0.3896647,1.052375 0.77919351,2.234827 1.38365334,4.200213 4.11919029,8.889803 7.05367259,12.092273 l 1.5332995,1.67333 -7.85437109,7.8511 c -4.31990411,4.3181 -7.93485561,7.85109 -8.03322561,7.85109 -0.09837,0 -1.0501379,-0.95987 -2.1150396,-2.13305 z"
           id="path1" /></g></g><g
       id="g14"><g
         id="g2"
         transform="matrix(0.18024994,0,0,0.18031179,53.391578,72.385729)"
         style="filter:url(#filter13)"><path
           style="fill:#fcfc31"
           d="m 79.168267,98.479993 -10.452988,-2.823931 0.495819,-2.116667 c 0.711947,-3.039324 0.71201,-11.512289 1.09e-4,-14.552083 l -0.495711,-2.116667 10.585171,-2.841477 c 5.821845,-1.562813 10.71848,-2.842735 10.881412,-2.844271 0.351398,-0.0033 1.280678,4.247086 1.821562,8.331581 0.758413,5.727161 0.415193,12.594737 -0.955365,19.116146 -0.443879,2.112076 -0.664752,2.707476 -0.998489,2.691636 -0.235692,-0.0112 -5.132376,-1.2911 -10.88152,-2.844267 z"
           id="path13-6" /><path
           style="fill:#cfe92a"
           d="m 67.155523,119.90258 -7.913649,-7.93023 1.521107,-1.67585 c 2.922782,-3.22012 6.013815,-8.56462 7.3464,-12.702161 0.319912,-0.993292 0.696118,-1.805986 0.836014,-1.805986 0.342115,0 21.17626,5.584247 21.311224,5.712127 0.210893,0.19981 -1.910261,6.38911 -3.120244,9.10454 -2.383124,5.34817 -6.167021,11.02771 -10.101653,15.16233 l -1.96555,2.06546 z"
           id="path12-9" /><path
           style="fill:#f9ba01"
           d="M 68.094493,74.952416 C 66.886391,70.985734 63.71508,65.482629 60.762981,62.23021 l -1.521107,-1.675853 7.907302,-7.910598 7.907302,-7.910598 1.031218,0.987492 c 3.461937,3.315143 7.792455,9.439669 10.239368,14.481242 1.369894,2.822505 3.95565,9.731633 3.95565,10.569481 0,0.194767 -4.082142,1.411246 -10.54491,3.142384 -5.799701,1.553526 -10.669666,2.824593 -10.822146,2.824593 -0.15248,0 -0.522004,-0.803672 -0.821165,-1.785937 z"
           id="path11-0" /><path
           style="fill:#fa9701"
           d="M 57.758715,59.234973 C 54.576604,56.279063 48.589042,52.835554 44.68964,51.718815 l -1.651832,-0.473064 2.880235,-10.73547 c 1.58413,-5.904508 2.929386,-10.787106 2.989458,-10.850217 0.260242,-0.273408 7.917484,2.514322 10.815838,3.937663 5.124799,2.516716 11.235213,6.829927 14.412289,10.173327 l 0.91854,0.966627 -7.929998,7.915355 -7.929998,7.915355 z"
           id="path10-3" /><path
           style="fill:#0390cd"
           d="m 27.973339,144.83982 c -4.833842,-0.68371 -9.392709,-1.67186 -9.392709,-2.03591 0,-0.19065 5.564561,-21.30039 5.671881,-21.51687 0.0092,-0.0185 1.088224,0.20422 2.397911,0.4949 3.350881,0.74373 10.625884,0.75203 13.97112,0.0159 1.281199,-0.28191 2.369801,-0.44509 2.419116,-0.36262 0.139948,0.23406 5.702472,21.06856 5.702472,21.35869 0,0.27088 -2.302186,0.86806 -6.085416,1.57854 -2.159771,0.4056 -12.740146,0.74231 -14.684375,0.46732 z"
           id="path9-5" /><path
           style="fill:#fb5207"
           d="M 21.379366,40.422739 C 19.795981,34.489191 18.548284,29.58865 18.606704,29.532647 c 0.224151,-0.214877 5.524458,-1.267265 8.17601,-1.623364 3.566568,-0.478986 10.201275,-0.478178 13.758333,0.0017 3.812931,0.51437 8.202083,1.482833 8.202083,1.809782 0,0.335019 -5.576984,21.184092 -5.702138,21.316951 -0.04985,0.05292 -1.198275,-0.121966 -2.55206,-0.388628 -3.414376,-0.672548 -10.769086,-0.637338 -13.976265,0.06691 l -2.254421,0.495036 z"
           id="path8-8" /><path
           style="fill:#64ae31"
           d="m 45.934583,132.07051 -2.90149,-10.81368 1.862831,-0.59128 c 4.220261,-1.33954 8.877562,-3.98308 12.480705,-7.08421 l 1.867161,-1.60702 7.971843,7.98045 7.971843,7.98046 -2.440402,2.17073 c -4.663074,4.14779 -8.473236,6.69648 -13.756261,9.20185 -2.845563,1.34944 -8.920379,3.57638 -9.755957,3.57638 -0.301489,0 -1.10668,-2.63829 -3.300273,-10.81368 z"
           id="path7-1" /><path
           style="fill:#0146fc"
           d="m 14.744172,141.84883 c -3.974376,-1.37302 -5.4021645,-1.96886 -8.3331419,-3.47754 -4.4430192,-2.28699 -9.7149701,-6.07393 -12.7643847,-9.1689 l -1.5183601,-1.54104 7.91847829,-7.91518 7.91847831,-7.91518 1.1405068,1.04546 c 3.6717923,3.36579 7.8820043,5.88178 12.5984803,7.52876 1.337958,0.46721 2.432651,0.97375 2.432651,1.12564 0,0.15188 -1.270349,5.01852 -2.822998,10.81474 -2.223362,8.30009 -2.911817,10.53542 -3.241145,10.52365 -0.229982,-0.008 -1.727836,-0.46741 -3.328565,-1.02041 z"
           id="path6-0" /><path
           style="fill:#fc2611"
           d="M -0.02470738,52.709077 -7.9111127,44.819384 -6.0876331,43.099206 C -0.12583571,37.475148 6.7572084,33.36869 14.54123,30.791923 c 2.071194,-0.685634 3.816459,-1.19497 3.878365,-1.131859 0.136244,0.138895 5.717285,20.945237 5.717285,21.314264 0,0.142927 -0.822886,0.524896 -1.828636,0.848819 -4.191479,1.349957 -9.507364,4.438517 -12.7671818,7.417807 -0.8171171,0.746799 -1.5292492,1.357816 -1.5825158,1.357816 -0.053267,0 -3.6457308,-3.550362 -7.98325378,-7.889693 z"
           id="path5-6" /><path
           style="fill:#8500ad"
           d="m -23.725054,98.632624 c -0.982185,-4.669026 -1.082238,-5.498583 -1.252532,-10.384896 -0.187249,-5.372839 0.09849,-8.844628 1.132358,-13.758333 0.367419,-1.74625 0.716543,-3.224013 0.775829,-3.283917 0.05929,-0.05991 4.961285,1.187871 10.893329,2.772836 l 10.7855335,2.881754 -0.4750427,2.254247 c -0.9597182,4.554205 -0.8945237,9.140687 0.2219691,15.615705 l 0.1596782,0.926042 -10.6714751,2.844271 c -5.869312,1.564347 -10.745202,2.844267 -10.835313,2.844267 -0.09011,0 -0.420561,-1.22039 -0.734334,-2.711976 z"
           id="path4-6" /><path
           style="fill:#a5184a"
           d="m -12.507911,73.914158 c -5.675313,-1.531695 -10.365116,-2.829297 -10.421784,-2.88356 -0.186214,-0.178309 0.794316,-3.366696 1.951127,-6.344476 2.684863,-6.911178 6.23909,-12.613161 11.1063866,-17.817772 l 1.9378467,-2.072144 7.97816937,7.981387 7.97816933,7.981387 -0.5748124,0.515207 c -0.7649973,0.685672 -3.6349792,4.413135 -4.6793363,6.077409 -1.0939383,1.743287 -2.76481131,5.362828 -3.5087325,7.60082 -0.4148525,1.24803 -0.7223587,1.78002 -1.0209699,1.76629 -0.2350228,-0.01081 -5.0707516,-1.272853 -10.7460639,-2.804548 z"
           id="path3-8" /><path
           style="fill:#3c00a3"
           d="m -10.042559,125.4053 c -5.529238,-6.09143 -9.732992,-13.41716 -12.134004,-21.1455 -0.459055,-1.4776 -0.793123,-2.7162 -0.742372,-2.75243 0.210867,-0.15054 21.4478264,-5.749449 21.5128467,-5.67164 0.039028,0.0467 0.3896647,1.052375 0.77919351,2.234827 1.38365334,4.200213 4.11919029,8.889803 7.05367259,12.092273 l 1.5332995,1.67333 -7.85437109,7.8511 c -4.31990411,4.3181 -7.93485561,7.85109 -8.03322561,7.85109 -0.09837,0 -1.0501379,-0.95987 -2.1150396,-2.13305 z"
           id="path1-2" /></g></g></g></svg>
